<svg width="317" height="317" viewBox="0 0 317 317" fill="none" xmlns="http://www.w3.org/2000/svg">
<g clip-path="url(#clip0_29_6)">
<rect x="-21" y="-21" width="361" height="361" fill="#25939D"/>
<path d="M132.778 35.4825C100.453 41.9872 72.6907 61.0398 54.7214 87.32H100.779C103.146 79.9307 105.888 72.9899 108.953 66.6845C115.37 53.5133 123.42 42.5477 132.778 35.4825H132.778ZM182.223 35.4825C191.581 42.5477 199.63 53.5133 206.048 66.6845C209.113 72.9899 211.855 79.9304 214.222 87.32H260.28C242.311 61.0398 214.548 41.9869 182.223 35.4825H182.223ZM151.12 40.367C140.03 43.4075 129.164 54.3108 120.416 72.267C118.186 76.8527 116.204 81.9618 114.335 87.32H151.119L151.12 40.367ZM163.88 40.367V87.3206H200.664C198.795 81.9624 196.814 76.8536 194.583 72.2677C185.836 54.3115 174.97 43.4081 163.879 40.3677L163.88 40.367ZM47.1451 100.081C39.1204 115.482 34.2231 132.791 33.2884 151.121H90.6095C91.0457 132.903 93.3634 115.619 97.1889 100.081H47.1451ZM110.345 100.081C106.345 115.308 103.941 132.705 103.467 151.121H151.119V100.081H110.345ZM163.877 100.081V151.121H211.529C211.056 132.703 208.651 115.307 204.651 100.081H163.877ZM217.807 100.081C221.632 115.619 223.95 132.915 224.386 151.121H281.707C280.773 132.791 275.876 115.482 267.851 100.081H217.807ZM33.2846 163.881C34.2192 182.211 39.1162 199.519 47.1413 214.921H97.186C93.3481 199.382 91.0427 182.124 90.6067 163.881H33.2846ZM103.465 163.881C103.938 182.31 106.331 199.704 110.343 214.921H151.114V163.881H103.465ZM163.877 163.881V214.921H204.648C208.661 199.706 211.053 182.309 211.527 163.881H163.877ZM224.388 163.881C223.952 182.124 221.647 199.382 217.809 214.921H267.853C275.878 199.519 280.775 182.21 281.71 163.881H224.388ZM54.7182 227.681C72.7242 254.011 100.574 273.052 132.972 279.518C123.539 272.428 115.402 261.475 108.948 248.216C105.882 241.911 103.141 235.058 100.773 227.681H54.7182ZM114.333 227.681C116.202 233.026 118.183 238.048 120.414 242.634C129.161 260.578 140.027 271.568 151.117 274.633V227.679L114.333 227.681ZM163.877 227.681V274.634C174.967 271.569 185.833 260.578 194.581 242.635C196.811 238.05 198.792 233.028 200.661 227.682L163.877 227.681ZM214.218 227.681C211.851 235.058 209.109 241.911 206.044 248.216C199.589 261.475 191.452 272.428 182.019 279.518C214.417 273.051 242.269 254.011 260.273 227.681H214.218Z" fill="white"/>
</g>
<defs>
<clipPath id="clip0_29_6">
<rect width="317" height="317" fill="white"/>
</clipPath>
</defs>
</svg>
